<svg xmlns="http://www.w3.org/2000/svg" width="236" height="127" viewBox="0 0 236 127"><path fill="#0b0b15" d="M44.53 71.75L44.53 71.75Q41.70 74.19 38.62 77.07Q35.55 79.95 32.08 82.39Q28.61 84.83 24.90 86.45Q21.19 88.06 17.09 88.06L17.09 88.06Q14.94 88.06 12.40 87.52Q9.86 86.98 7.67 85.71Q5.47 84.44 3.86 82.54Q2.25 80.64 2.15 78.00L2.15 78.00Q1.76 74.29 2.98 68.87Q4.20 63.45 6.64 57.44Q9.08 51.44 12.45 45.53Q15.82 39.62 19.82 34.79Q23.83 29.95 28.27 27.02Q32.71 24.09 37.30 24.09L37.30 24.09Q37.99 24.09 38.82 24.24Q39.65 24.39 40.38 24.68Q41.11 24.97 41.60 25.61Q42.09 26.24 42.09 27.31L42.09 27.31Q42.09 27.80 39.89 28.58Q37.70 29.37 34.86 30.29Q32.03 31.22 29.39 32.25Q26.76 33.27 25.88 34.25L25.88 34.25Q22.36 38.74 19.19 43.43Q16.02 48.12 13.53 53.10Q11.04 58.08 9.33 63.35Q7.62 68.62 7.03 74.19L7.03 74.19Q7.03 76.92 8.11 78.44Q9.18 79.95 10.89 80.68Q12.60 81.42 14.84 81.56Q17.09 81.71 19.34 81.71L19.34 81.71Q23.24 81.32 27.15 79.02Q31.05 76.73 34.52 73.31Q37.99 69.89 40.82 65.55Q43.65 61.20 45.61 56.71L45.61 56.71L30.37 56.71Q30.37 55.54 31.79 54.56Q33.20 53.58 35.40 52.75Q37.60 51.92 40.33 51.24Q43.07 50.56 45.70 50.07Q48.34 49.58 50.59 49.39Q52.83 49.19 54.10 49.19L54.10 49.19L55.18 49.19Q55.86 49.19 56.45 49.39Q57.03 49.58 57.28 50.12Q57.52 50.65 57.03 51.73L57.03 51.73Q56.93 51.92 56.40 52.31Q55.86 52.71 55.22 53.10Q54.59 53.49 54.00 53.83Q53.42 54.17 53.22 54.27L53.22 54.27Q51.17 58.37 50.29 63.94Q49.41 69.50 49.32 75.46Q49.22 81.42 49.71 87.32Q50.20 93.23 50.88 97.92L50.88 97.92L47.07 100.46Q45.90 99.29 45.17 97.14Q44.43 94.99 44.14 92.35Q43.85 89.72 43.85 86.79Q43.85 83.86 43.99 81.07Q44.14 78.29 44.29 75.85Q44.43 73.41 44.53 71.75ZM89.45 86.69L89.45 86.69Q88.96 84.15 88.62 80.59Q88.28 77.02 87.89 73.36Q87.50 69.70 86.96 66.47Q86.43 63.25 85.35 61.20L85.35 61.20Q80.37 71.36 76.56 77.17Q72.75 82.98 69.87 85.47Q66.99 87.96 65.04 87.86Q63.09 87.76 61.82 86.10Q60.55 84.44 60.01 81.86Q59.47 79.27 59.28 77.02L59.28 77.02Q59.28 74.87 60.25 70.97Q61.23 67.06 62.89 62.42Q64.55 57.78 66.85 53.00Q69.14 48.21 71.78 44.31Q74.41 40.40 77.25 37.86Q80.08 35.32 82.91 35.32L82.91 35.32Q87.11 34.64 89.11 37.13Q91.11 39.62 89.84 45.48L89.84 45.48Q89.84 51.92 90.38 56.51Q90.92 61.10 91.55 65.30Q92.19 69.50 92.72 74.09Q93.26 78.68 93.26 85.13L93.26 85.13Q93.26 86.30 93.02 87.13Q92.77 87.96 90.63 87.96L90.63 87.96Q90.33 87.96 89.89 87.47Q89.45 86.98 89.45 86.69ZM84.18 43.04L84.18 43.04Q83.11 41.47 81.25 42.74Q79.39 44.01 77.34 46.94Q75.29 49.87 73.14 53.97Q71.00 58.08 69.14 62.28Q67.29 66.47 65.92 70.23Q64.55 73.99 64.06 76.44L64.06 76.44Q64.06 79.95 65.14 80.39Q66.21 80.83 67.77 79.27Q69.34 77.71 71.34 74.78Q73.34 71.85 75.24 68.53Q77.15 65.21 78.86 62.08Q80.57 58.96 81.54 57.00L81.54 57.00Q82.42 54.95 82.91 53.19Q83.40 51.44 83.74 49.82Q84.08 48.21 84.13 46.55Q84.18 44.89 84.18 43.04ZM107.13 87.76L102.25 88.94Q101.95 86.20 101.76 81.51Q101.56 76.83 101.37 71.31Q101.17 65.79 100.93 59.83Q100.68 53.88 100.39 48.51Q100.10 43.14 99.66 38.74Q99.22 34.35 98.73 31.71L98.73 31.71Q98.73 29.76 99.61 29.41Q100.49 29.07 101.86 29.07L101.86 29.07Q102.05 29.07 102.73 29.07Q103.42 29.07 103.71 29.17L103.71 29.17Q104.59 32.10 104.83 36.74Q105.08 41.38 105.22 46.85Q105.37 52.31 105.52 58.17Q105.66 64.03 106.15 69.31L106.15 69.31Q107.52 61.59 108.45 56.51Q109.38 51.44 110.21 48.36Q111.04 45.28 111.77 43.77Q112.50 42.26 113.43 41.77Q114.36 41.28 115.48 41.33Q116.60 41.38 118.16 41.38L118.16 41.38Q119.92 41.38 121.04 42.74Q122.17 44.11 122.80 46.26Q123.44 48.41 123.78 50.95Q124.12 53.49 124.41 55.88Q124.71 58.27 125.05 60.22Q125.39 62.18 126.17 62.96L126.17 62.96Q128.61 55.73 130.37 51.14Q132.13 46.55 133.40 43.87Q134.67 41.18 135.64 40.01Q136.62 38.84 137.40 38.59Q138.18 38.35 138.82 38.55Q139.45 38.74 140.14 38.74L140.14 38.74Q142.77 38.74 144.14 41.47L144.14 41.47Q145.70 45.87 146.29 49.82Q146.88 53.78 146.97 57.44Q147.07 61.10 147.02 64.42Q146.97 67.74 147.22 70.87Q147.46 73.99 148.29 77.02Q149.12 80.05 151.17 82.98L151.17 82.98Q150.39 84.54 149.61 85.08Q148.83 85.62 147.46 85.62L147.46 85.62Q146.29 85.62 145.41 84.79Q144.53 83.96 143.95 82.73Q143.36 81.51 143.02 80.24Q142.68 78.97 142.38 78.00L142.38 78.00Q141.99 64.03 141.16 56.56Q140.33 49.09 138.67 48.70Q137.01 48.31 134.42 55.20Q131.84 62.08 128.03 76.73L128.03 76.73Q127.73 77.22 127.15 77.31Q126.56 77.41 125.93 77.41Q125.29 77.41 124.66 77.36Q124.02 77.31 123.44 77.41L123.44 77.41Q121.00 63.06 119.38 56.76Q117.77 50.46 116.11 51.92Q114.45 53.39 112.40 62.42Q110.35 71.46 107.13 87.76L107.13 87.76ZM157.81 87.28L157.81 87.28Q157.81 80.93 157.57 73.90Q157.32 66.87 157.08 59.69Q156.84 52.51 156.93 45.58Q157.03 38.64 157.81 32.59L157.81 32.59Q158.01 32.49 158.74 32.44Q159.47 32.39 159.77 32.39L159.77 32.39Q161.13 32.39 161.96 32.83Q162.79 33.27 162.79 34.74L162.79 34.74Q162.79 40.50 162.74 47.29Q162.70 54.07 162.65 61.05Q162.60 68.04 162.60 74.87Q162.60 81.71 162.79 87.28L162.79 87.28Q162.89 88.94 162.16 89.47Q161.43 90.01 160.35 90.01L160.35 90.01Q159.18 90.01 158.40 89.47Q157.62 88.94 157.81 87.28ZM155.66 17.35L155.66 17.35Q155.66 16.18 156.45 15.79Q157.23 15.40 158.20 15.40L158.20 15.40Q160.16 15.40 160.64 16.67Q161.13 17.94 161.13 19.60L161.13 19.60Q160.55 20.67 159.67 21.11Q158.79 21.55 157.86 21.31Q156.93 21.06 156.30 20.09Q155.66 19.11 155.66 17.35ZM177.25 53.19L177.25 53.19Q176.86 53.19 176.07 53.54Q175.29 53.88 174.46 54.32Q173.63 54.76 172.85 55.15Q172.07 55.54 171.48 55.54L171.48 55.54Q170.51 55.54 169.78 55.15Q169.04 54.76 169.04 53.58L169.04 53.58Q169.04 52.61 169.97 51.73Q170.90 50.85 172.17 49.97Q173.44 49.09 174.71 48.31Q175.98 47.53 176.56 46.75L176.56 46.75Q176.37 45.19 176.27 40.89Q176.17 36.59 176.32 31.07Q176.46 25.56 177.00 19.70Q177.54 13.84 178.66 9.20Q179.79 4.56 181.64 1.92Q183.50-0.71 186.43 0.26L186.43 0.26Q188.48 0.26 190.14 1.48Q191.80 2.71 192.97 4.51Q194.14 6.32 194.78 8.47Q195.41 10.62 195.41 12.37L195.41 12.37Q195.41 13.35 194.97 14.47Q194.53 15.60 193.36 15.60L193.36 15.60L193.07 15.60Q192.97 15.60 192.87 15.50L192.87 15.50Q190.53 9.54 188.92 7.93Q187.30 6.32 186.18 7.88Q185.06 9.44 184.33 13.45Q183.59 17.45 183.11 22.68Q182.62 27.90 182.23 33.71Q181.84 39.52 181.45 44.50L181.45 44.50Q183.40 44.01 184.72 43.53Q186.04 43.04 187.11 42.50Q188.18 41.96 189.06 41.43Q189.94 40.89 191.02 40.50L191.02 40.50Q193.07 39.52 195.56 38.59Q198.05 37.67 200.39 37.67L200.39 37.67Q200.39 40.50 199.37 42.35Q198.34 44.21 196.73 45.38Q195.12 46.55 193.07 47.09Q191.02 47.63 188.92 48.02Q186.82 48.41 184.96 48.80Q183.11 49.19 181.74 49.78L181.74 49.78Q182.03 56.12 182.57 60.91Q183.11 65.69 183.54 69.40Q183.98 73.12 184.23 76.19Q184.47 79.27 184.18 82.30L184.18 82.30Q184.18 82.98 184.23 84.20Q184.28 85.42 184.13 86.59Q183.98 87.76 183.40 88.59Q182.81 89.42 181.54 89.42L181.54 89.42Q180.37 89.42 179.79 88.89Q179.20 88.35 179.00 86.69L179.00 86.69Q178.42 78.78 178.08 73.26Q177.73 67.74 177.54 63.98Q177.34 60.22 177.34 58.08L177.34 58.08L177.34 53.58Q177.34 53.19 177.25 53.19ZM226.27 126.63L229.20 88.84L204.00 48.51Q203.91 48.41 203.81 47.77Q203.71 47.14 203.71 46.75L203.71 46.75Q203.71 45.48 204.15 44.55Q204.59 43.62 206.45 43.62L206.45 43.62Q206.84 43.62 207.81 44.06Q208.79 44.50 208.98 44.89L208.98 44.89Q211.13 48.31 213.43 52.51Q215.72 56.71 218.21 60.91Q220.70 65.11 223.44 68.97Q226.17 72.82 229.20 75.56L229.20 75.56L231.54 37.28Q231.64 37.28 232.08 37.23Q232.52 37.18 232.71 37.18L232.71 37.18Q233.59 37.18 234.47 37.42Q235.35 37.67 235.74 38.74L235.74 38.74Q235.84 42.26 235.79 47.43Q235.74 52.61 235.60 58.08Q235.45 63.55 235.30 68.57Q235.16 73.60 235.06 76.63L235.06 76.63Q234.96 78.58 234.72 82.49Q234.47 86.40 234.13 91.33Q233.79 96.26 233.35 101.73Q232.91 107.20 232.52 112.08Q232.13 116.96 231.84 120.92Q231.54 124.87 231.35 126.63L231.35 126.63L226.27 126.63Z"></path></svg>